<svg xmlns="http://www.w3.org/2000/svg" xmlns:xlink="http://www.w3.org/1999/xlink" viewBox="0 0 128.77 145">
    <defs>
        <style>
            .cls-1 {
                isolation: isolate;
            }

            .cls-2 {
                fill: #f0f0f0;
            }

            .cls-3 {
                fill: url(#linear-gradient);
            }

            .cls-4,
            .cls-5 {
                fill: #008cff;
            }

            .cls-4,
            .cls-7 {
                mix-blend-mode: luminosity;
            }

            .cls-5 {
                opacity: 0.6;
                mix-blend-mode: lighten;
            }

            .cls-6 {
                fill: url(#linear-gradient-2);
            }

            .cls-7 {
                fill: #cc1417;
            }

            .cls-8 {
                fill: url(#linear-gradient-3);
            }

            .cls-9 {
                fill: url(#linear-gradient-4);
            }
        </style>
        <linearGradient id="linear-gradient" x1="168.55" y1="261.14" x2="219.52" y2="275.24"
            gradientUnits="userSpaceOnUse">
            <stop offset="0" stop-color="#008cff" />
            <stop offset="0.13" stop-color="#32a2ff" stop-opacity="0.81" />
            <stop offset="0.31" stop-color="#6fbeff" stop-opacity="0.56" />
            <stop offset="0.48" stop-color="#a3d5ff" stop-opacity="0.36" />
            <stop offset="0.64" stop-color="#cbe7ff" stop-opacity="0.21" />
            <stop offset="0.78" stop-color="#e7f4ff" stop-opacity="0.09" />
            <stop offset="0.91" stop-color="#f9fcff" stop-opacity="0.02" />
            <stop offset="1" stop-color="#fff" stop-opacity="0" />
        </linearGradient>
        <linearGradient id="linear-gradient-2" x1="284.72" y1="260.1" x2="233.2" y2="274.74"
            gradientUnits="userSpaceOnUse">
            <stop offset="0" stop-color="#cc1417" />
            <stop offset="0.12" stop-color="#d53d3f" stop-opacity="0.83" />
            <stop offset="0.35" stop-color="#e48183" stop-opacity="0.53" />
            <stop offset="0.56" stop-color="#efb8b8" stop-opacity="0.3" />
            <stop offset="0.75" stop-color="#f8dfdf" stop-opacity="0.14" />
            <stop offset="0.9" stop-color="#fdf6f6" stop-opacity="0.04" />
            <stop offset="1" stop-color="#fff" stop-opacity="0" />
        </linearGradient>
        <linearGradient id="linear-gradient-3" x1="221.39" y1="235.8" x2="258.7" y2="294.03"
            gradientUnits="userSpaceOnUse">
            <stop offset="0.02" stop-color="#f0f0f0" />
            <stop offset="0.07" stop-color="#eacccd" />
            <stop offset="0.15" stop-color="#e3a1a2" />
            <stop offset="0.22" stop-color="#dd7b7d" />
            <stop offset="0.31" stop-color="#d85b5d" />
            <stop offset="0.4" stop-color="#d34143" />
            <stop offset="0.49" stop-color="#d02d30" />
            <stop offset="0.61" stop-color="#ce1f22" />
            <stop offset="0.74" stop-color="#cc1619" />
            <stop offset="0.97" stop-color="#cc1417" />
        </linearGradient>
        <linearGradient id="linear-gradient-4" x1="228.14" y1="245.21" x2="181.79" y2="282.13"
            gradientUnits="userSpaceOnUse">
            <stop offset="0.04" stop-color="#f0f0f0" />
            <stop offset="0.11" stop-color="#bfdbf3" />
            <stop offset="0.19" stop-color="#92c9f6" />
            <stop offset="0.27" stop-color="#6bb9f8" />
            <stop offset="0.35" stop-color="#4aabfa" />
            <stop offset="0.45" stop-color="#2f9ffc" />
            <stop offset="0.55" stop-color="#1a97fd" />
            <stop offset="0.66" stop-color="#0b91fe" />
            <stop offset="0.79" stop-color="#038dff" />
            <stop offset="1" stop-color="#008cff" />
        </linearGradient>
    </defs>
    <title>Untitled-1</title>
    <g class="cls-1">
        <g id="Layer_2" data-name="Layer 2">
            <path class="cls-2"
                d="M183.68,343.36H168.36l-3.58,7.37h-4.2l15-29.23h3.7l14.12,29.23h-6.25ZM182.57,341l-6.38-13.63L169.52,341Z"
                transform="translate(-160.58 -206.14)" />
            <path class="cls-2" d="M199,321.91H224.1v2.35H205v9.83h16.35v2.35H205v14.29H199Z"
                transform="translate(-160.58 -206.14)" />
            <path class="cls-2" d="M226.53,321.91h6.55l10.82,22.72,11.45-22.72h4l-14.69,29.23h-3.75Z"
                transform="translate(-160.58 -206.14)" />
            <path class="cls-2"
                d="M264.49,321.91h11.69q6.3,0,9.73,2.08c2.29,1.38,3.44,3.66,3.44,6.81s-1.12,5.39-3.37,6.79-5.52,2.1-9.8,2.1h-5.6v11h-6.09Zm11.77,15.39a8.16,8.16,0,0,0,5.27-1.44c1.18-1,1.77-2.64,1.77-5.06s-.58-4-1.75-5a8,8,0,0,0-5.29-1.5h-5.68v13Z"
                transform="translate(-160.58 -206.14)" />
            <path class="cls-3"
                d="M215.42,239.25a18.38,18.38,0,0,0-.59-4.45,17.18,17.18,0,0,0-.75-2.19,13.51,13.51,0,0,0-1.14-2.11,11.26,11.26,0,0,0-3.64-3.45A11.79,11.79,0,0,0,207,226a10.38,10.38,0,0,0-2.56-.51,13.61,13.61,0,0,0-5.08.75,22.29,22.29,0,0,0-4.38,2.07,32.85,32.85,0,0,0-7.1,6,47.8,47.8,0,0,0-5.45,7.28,67.76,67.76,0,0,0-4.18,8A72.24,72.24,0,0,0,173,266.63a65.15,65.15,0,0,0-.92,8.92,87.7,87.7,0,0,0,.12,8.88,70,70,0,0,0,1.09,8.86,41.55,41.55,0,0,0,2.61,8.7,23.93,23.93,0,0,0,2.29,4.09,16.31,16.31,0,0,0,3.33,3.52,13.18,13.18,0,0,0,2.1,1.27,14.08,14.08,0,0,0,2.32.86,13.56,13.56,0,0,0,2.43.35,14.49,14.49,0,0,0,2.38-.1,21.28,21.28,0,0,0,4.43-1.1c1.41-.49,2.76-1.06,4.09-1.66l3.94-1.82c1.31-.61,2.4-1.11,4-1.72,5.46-2.07,9.73-7.86,9.35-12.2-1.7-.29-4.54-1.05-6.17-3.52s-2.52-6.54-3.49-9.33a11,11,0,0,0-2.88-4.85c-.49-.43,3.59-7.71,8-12.92,3.37-4,4.7-6.73,4.49-7.11s-3.73-.17-4.69-.63C213.73,252.82,215.52,241,215.42,239.25Z"
                transform="translate(-160.58 -206.14)" />
            <path class="cls-4"
                d="M215.42,239.25c-.7-1.31-1.38-2.59-2.15-3.76a14.86,14.86,0,0,0-1.23-1.66,13.2,13.2,0,0,0-1.35-1.43,9.5,9.5,0,0,0-3.09-1.93,9.93,9.93,0,0,0-1.7-.46,13.72,13.72,0,0,0-1.71-.17,9.56,9.56,0,0,0-3.43.64,17,17,0,0,0-3.41,1.71,30.48,30.48,0,0,0-6,5.27,54.69,54.69,0,0,0-8.69,14,72.48,72.48,0,0,0-5,16,66.1,66.1,0,0,0-1,8.29c-.16,2.81-.19,5.64-.1,8.46a70.74,70.74,0,0,0,.77,8.37,37.68,37.68,0,0,0,2.06,8,15.76,15.76,0,0,0,4.25,6.43,12.75,12.75,0,0,0,1.51,1.11,11.74,11.74,0,0,0,1.68.8,12.25,12.25,0,0,0,1.83.46,13.8,13.8,0,0,0,2,.12,31.14,31.14,0,0,0,8.2-1.6l4.18-1.21c1.4-.37,2.82-.73,4.25-1-1.35.54-2.68,1.11-4,1.72l-3.94,1.82c-1.33.6-2.68,1.17-4.09,1.66a21.28,21.28,0,0,1-4.43,1.1,14.49,14.49,0,0,1-2.38.1,13.56,13.56,0,0,1-2.43-.35,14.08,14.08,0,0,1-2.32-.86,13.18,13.18,0,0,1-2.1-1.27,16.31,16.31,0,0,1-3.33-3.52,23.93,23.93,0,0,1-2.29-4.09,41.55,41.55,0,0,1-2.61-8.7,70,70,0,0,1-1.09-8.86,87.7,87.7,0,0,1-.12-8.88,65.15,65.15,0,0,1,.92-8.92,72.24,72.24,0,0,1,5.19-17.11,67.76,67.76,0,0,1,4.18-8,47.8,47.8,0,0,1,5.45-7.28,32.85,32.85,0,0,1,7.1-6,22.29,22.29,0,0,1,4.38-2.07,13.61,13.61,0,0,1,5.08-.75A10.38,10.38,0,0,1,207,226a11.79,11.79,0,0,1,2.35,1.05,11.26,11.26,0,0,1,3.64,3.45,13.51,13.51,0,0,1,1.14,2.11,17.18,17.18,0,0,1,.75,2.19A18.38,18.38,0,0,1,215.42,239.25Z"
                transform="translate(-160.58 -206.14)" />
            <path class="cls-5"
                d="M215.42,239.25c-.7-1.31-1.38-2.59-2.15-3.76a14.86,14.86,0,0,0-1.23-1.66,13.2,13.2,0,0,0-1.35-1.43,9.5,9.5,0,0,0-3.09-1.93,9.93,9.93,0,0,0-1.7-.46,13.72,13.72,0,0,0-1.71-.17,9.56,9.56,0,0,0-3.43.64,17,17,0,0,0-3.41,1.71,30.48,30.48,0,0,0-6,5.27,54.69,54.69,0,0,0-8.69,14,72.48,72.48,0,0,0-5,16,66.1,66.1,0,0,0-1,8.29c-.16,2.81-.19,5.64-.1,8.46a70.74,70.74,0,0,0,.77,8.37,37.68,37.68,0,0,0,2.06,8,15.76,15.76,0,0,0,4.25,6.43,12.75,12.75,0,0,0,1.51,1.11,11.74,11.74,0,0,0,1.68.8,12.25,12.25,0,0,0,1.83.46,13.8,13.8,0,0,0,2,.12,31.14,31.14,0,0,0,8.2-1.6l4.18-1.21c1.4-.37,2.82-.73,4.25-1-1.35.54-2.68,1.11-4,1.72l-3.94,1.82c-1.33.6-2.68,1.17-4.09,1.66a21.28,21.28,0,0,1-4.43,1.1,14.49,14.49,0,0,1-2.38.1,13.56,13.56,0,0,1-2.43-.35,14.08,14.08,0,0,1-2.32-.86,13.18,13.18,0,0,1-2.1-1.27,16.31,16.31,0,0,1-3.33-3.52,23.93,23.93,0,0,1-2.29-4.09,41.55,41.55,0,0,1-2.61-8.7,70,70,0,0,1-1.09-8.86,87.7,87.7,0,0,1-.12-8.88,65.15,65.15,0,0,1,.92-8.92,72.24,72.24,0,0,1,5.19-17.11,67.76,67.76,0,0,1,4.18-8,47.8,47.8,0,0,1,5.45-7.28,32.85,32.85,0,0,1,7.1-6,22.29,22.29,0,0,1,4.38-2.07,13.61,13.61,0,0,1,5.08-.75A10.38,10.38,0,0,1,207,226a11.79,11.79,0,0,1,2.35,1.05,11.26,11.26,0,0,1,3.64,3.45,13.51,13.51,0,0,1,1.14,2.11,17.18,17.18,0,0,1,.75,2.19A18.38,18.38,0,0,1,215.42,239.25Z"
                transform="translate(-160.58 -206.14)" />
            <path class="cls-6"
                d="M234.73,237.51a12.82,12.82,0,0,1,.79-4.5,11.73,11.73,0,0,1,1.07-2.16,10.75,10.75,0,0,1,1.59-1.92,12.09,12.09,0,0,1,4.27-2.62,15.67,15.67,0,0,1,2.38-.68,5.26,5.26,0,0,1,.65-.1c.23,0,.46,0,.68-.05h.68c.22,0,.45,0,.66,0a15.75,15.75,0,0,1,4.91,1.24,25.21,25.21,0,0,1,4.21,2.33,35.55,35.55,0,0,1,6.87,6.29,50.66,50.66,0,0,1,5.26,7.48,71.53,71.53,0,0,1,7,16.6,73.14,73.14,0,0,1,1.87,8.82,67.89,67.89,0,0,1,.7,9,86.13,86.13,0,0,1-.29,8.94,63.06,63.06,0,0,1-1.34,8.91,35.84,35.84,0,0,1-3.1,8.67,20.25,20.25,0,0,1-2.71,3.93,14.43,14.43,0,0,1-1.79,1.7,10.77,10.77,0,0,1-1,.72l-.53.32-.54.3a13,13,0,0,1-2.3.91,13.11,13.11,0,0,1-2.37.48,18.26,18.26,0,0,1-4.68-.09,30.34,30.34,0,0,1-4.41-1q-2.15-.62-4.2-1.41c-1.37-.52-2.73-1.06-4.08-1.6s-2.7-1.09-4.06-1.61a22.08,22.08,0,0,0-3.23-1.09c.51-1.68,1.49-3.54,1.4-5.12s-.12-5.34-.12-5.34-3.19-2.63-1.94-3.68,6.43-3,8.21-4.25,5.47-3.6,5.51-6.31-2.08-8.2-3.73-11.41c-1.86-3.64-8.41-12-9.51-13.23s-5-6-4.16-10.08c.26-1.28,2.71-.68,2.28-2.36A31.74,31.74,0,0,1,234.73,237.51Z"
                transform="translate(-160.58 -206.14)" />
            <path class="cls-7"
                d="M234.73,237.51a12.82,12.82,0,0,1,.79-4.5,11.73,11.73,0,0,1,1.07-2.16,10.75,10.75,0,0,1,1.59-1.92,12.09,12.09,0,0,1,4.27-2.62,15.67,15.67,0,0,1,2.38-.68,5.26,5.26,0,0,1,.65-.1c.23,0,.46,0,.68-.05h.68c.22,0,.45,0,.66,0a15.75,15.75,0,0,1,4.91,1.24,25.21,25.21,0,0,1,4.21,2.33,35.55,35.55,0,0,1,6.87,6.29,50.66,50.66,0,0,1,5.26,7.48,71.53,71.53,0,0,1,7,16.6,73.14,73.14,0,0,1,1.87,8.82,67.89,67.89,0,0,1,.7,9,86.13,86.13,0,0,1-.29,8.94,63.06,63.06,0,0,1-1.34,8.91,35.84,35.84,0,0,1-3.1,8.67,20.25,20.25,0,0,1-2.71,3.93,14.43,14.43,0,0,1-1.79,1.7,10.77,10.77,0,0,1-1,.72l-.53.32-.54.3a13,13,0,0,1-2.3.91,13.11,13.11,0,0,1-2.37.48,18.26,18.26,0,0,1-4.68-.09,30.34,30.34,0,0,1-4.41-1q-2.15-.62-4.2-1.41c-1.37-.52-2.73-1.06-4.08-1.6s-2.7-1.09-4.06-1.61c1.44.25,2.86.59,4.28.91s2.84.7,4.25,1a42.86,42.86,0,0,0,8.43,1.3,13.19,13.19,0,0,0,7.57-1.71,11.76,11.76,0,0,0,2.82-2.5,16.42,16.42,0,0,0,2.07-3.34,32.85,32.85,0,0,0,2.45-7.84,64.54,64.54,0,0,0,1-8.38c.16-2.83.16-5.67.06-8.51-.05-1.43-.15-2.82-.29-4.22-.08-.7-.15-1.39-.25-2.09l-.14-1-.17-1a68.32,68.32,0,0,0-1.87-8.22,70.1,70.1,0,0,0-2.81-7.95,74.44,74.44,0,0,0-3.72-7.55,49.25,49.25,0,0,0-4.71-6.83,31.89,31.89,0,0,0-5.87-5.58,19.41,19.41,0,0,0-3.36-2,11.74,11.74,0,0,0-3.5-1l-.42,0a3,3,0,0,0-.42,0h-.4l-.43,0a14.41,14.41,0,0,0-1.88.24,11.91,11.91,0,0,0-1.8.48,10.31,10.31,0,0,0-1.69.77,11.33,11.33,0,0,0-3,2.52,20.25,20.25,0,0,0-1.24,1.71l-.57.93Z"
                transform="translate(-160.58 -206.14)" />
            <path class="cls-8"
                d="M258.76,279a22.71,22.71,0,0,0-4-8.49c-3.27-4.35-5.13-8.92-4.93-10.75s5.17-6.88,6.86-9.27c1.46-2.07.79-2.75-.28-4-.76-.91-4-1-6.82-2.42-1.71-.89-3.78-4.8-6.06-4.58-1.67.16-4.89,3.06-6.44,3.63a14.61,14.61,0,0,1-1.44.45c-3.65-2.66-6.75-9.88-6.75-22.52V206.14h-5.63v14.91c0,10.72,2.67,19.53,7.27,24.49-1.08,1.17-.54,2.85.24,4.31a22.84,22.84,0,0,0,3.72,5c.94.82,4.74,1.71,6.56,1.35-.06-.35,0-.21-.08-.47a5.67,5.67,0,0,1-3.93-1.68c-1.13-1.73-2.93-4.93-3-6.5.59-.28,2.87-.71,4.64-1.41a16.16,16.16,0,0,0,4.65-2.52c.85.65,2.72,3.25,4,4a12.18,12.18,0,0,0,4.95,1.68c-1.08,1.93-5.88,6.36-5.51,10.22.34,3.55,5.15,9.66,8.41,15.5,3.06,5.5,1.59,9.83-.84,13.26-2.32,3.26-8.71,7.79-13.27,9.77.59-1.3-.38-5.4-2.17-6.93,3-1,10.69-3.59,12.5-8.82,1.48-4.25-1.11-9.56-3.28-12.85s-5-7.5-7.52-9.89c-.34.25-.15.17-.33.36a43,43,0,0,1,3.95,5.57c1.27,2.48,4.74,8.6,5.33,13.65s-7.09,7.6-9.44,8.5-4.3,1.69-5.06,2.44c-1,1,.51,3.73,2.21,5.22a10.1,10.1,0,0,0-.49,4c.09,1.34,0,4.1,1,6.08,3.36-1.68,6.65-2.34,13.19-7.18C258.54,292.48,260.09,287,258.76,279Z"
                transform="translate(-160.58 -206.14)" />
            <path class="cls-9"
                d="M228.1,206.14h-5.63v12.28c0,19.14-6.26,27.12-13.67,34.85a16.26,16.26,0,0,1-5.29-2.09,18.47,18.47,0,0,1-4.48-4.36c-1.36-1.75-2.62-3.67-3.95-5.57l-.59-.83s-7.07,2.92-7.37,3.06c.32,0,5.66-.06,5.92-.07,1,1.8,2,3.61,3.18,5.42a27.41,27.41,0,0,0,2.22,2.95,17.23,17.23,0,0,0,2.84,2.61,17.53,17.53,0,0,0,3.39,1.93,22.05,22.05,0,0,0,3.61,1.18,33,33,0,0,0,4.54.75,14.13,14.13,0,0,1-1.41,2.26c-1.12,1.53-2.49,3-3.83,4.61a49.28,49.28,0,0,0-4,5.12,18.65,18.65,0,0,0-1.64,3.11,11.5,11.5,0,0,0-.84,3.72l-.1,2.14,2.15.16a1.12,1.12,0,0,1,.44.11,1.2,1.2,0,0,1,.41.33,6.29,6.29,0,0,1,.93,1.78c.57,1.52,1,3.35,1.56,5.18a20.84,20.84,0,0,0,2.51,5.57,11.33,11.33,0,0,0,2.27,2.43,10,10,0,0,0,1.51,1,12,12,0,0,1-2.61,3.06,6.36,6.36,0,0,1-3.36,1.87c-2.9.42-3.79-.26-5.57-.69a24.16,24.16,0,0,0-4.86-.61,13.17,13.17,0,0,0-4.17.75,4.82,4.82,0,0,0-2.92,2.68,3.7,3.7,0,0,1,1.39-1.22,5.56,5.56,0,0,1,1.74-.52,11.71,11.71,0,0,1,3.64.12,21.9,21.9,0,0,1,3.56.92c.59.19,1.16.41,1.73.64l.84.37.42.19.11.05.12,0,.26.11a7.81,7.81,0,0,0,4.46.3,11.06,11.06,0,0,0,4-1.81,14.61,14.61,0,0,0,3.08-2.9,12,12,0,0,0,1.24-1.81,8.65,8.65,0,0,0,.5-1.1,3.86,3.86,0,0,0,.27-1.64l-.05-1.07-1.11-.44a6.77,6.77,0,0,1-3.24-2.82,16.84,16.84,0,0,1-1.8-4.58c-.22-.86-.44-1.73-.66-2.64s-.47-1.85-.8-2.83a10.07,10.07,0,0,0-1.6-3.12,5.61,5.61,0,0,0-1.54-1.33,13.13,13.13,0,0,1,1.54-3,45.14,45.14,0,0,1,3.65-4.61c1.34-1.54,2.73-3.12,4.05-4.92a18.89,18.89,0,0,0,1.83-3,9.3,9.3,0,0,0,1-3.94v-2.16L215.7,254l-.9,0c7.44-8.2,13.3-17.09,13.3-35.55Z"
                transform="translate(-160.58 -206.14)" />
        </g>
    </g>
</svg>