<?xml version="1.0" encoding="utf-8"?>
<!-- Generator: Adobe Illustrator 23.0.3, SVG Export Plug-In . SVG Version: 6.00 Build 0)  -->
<svg version="1.1" id="Layer_1" xmlns="http://www.w3.org/2000/svg" xmlns:xlink="http://www.w3.org/1999/xlink" x="0px"
	y="0px" viewBox="0 0 275 103" style="enable-background:new 0 0 275 103;" xml:space="preserve">
	<style type="text/css">
		.st0 {
			fill: #464B4C;
		}

		.st1 {
			fill: url(#SVGID_1_);
		}

		.st2 {
			fill: url(#SVGID_2_);
		}

		.st3 {
			fill: url(#SVGID_3_);
		}

		.st4 {
			fill: url(#SVGID_4_);
		}
	</style>
	<g>
		<path d="M4,85.5l-3.7,6.4h1.9L3,90.4h2.7l0.7,1.4h2.4l-3.4-6.4H4z M3.7,89.3l0.8-1.4l0.7,1.4H3.7z" />
		<path d="M27.1,88.1c-0.4-0.1-1-0.3-1.7-0.4c-0.5-0.1-0.8-0.2-1-0.3c-0.3-0.1-0.4-0.3-0.4-0.4c0-0.1,0-0.2,0.2-0.3
		c0.1-0.1,0.4-0.2,0.8-0.2c0.5,0,0.8,0.1,1.1,0.2c0.2,0.1,0.4,0.2,0.4,0.4l1.9,0.1c-0.1-0.6-0.4-0.9-1-1.3c-0.6-0.3-1.3-0.5-2.4-0.5
		c-2.2,0-3.4,0.6-3.4,1.8c0,0.6,0.4,1.1,1,1.4c0.6,0.3,1.3,0.5,2.1,0.6c0.5,0.1,0.8,0.2,1.1,0.3c0.3,0.1,0.4,0.3,0.4,0.6
		c0,0.3-0.1,0.5-0.2,0.5c-0.1,0.1-0.4,0.2-1,0.2c-0.6,0-1-0.1-1.2-0.3c-0.2-0.2-0.4-0.4-0.4-0.8l-2,0c0,0.7,0.4,1.1,1.1,1.5
		c0.6,0.4,1.5,0.6,2.5,0.6c0.6,0,1.2-0.1,1.7-0.2c0.5-0.1,0.9-0.4,1.2-0.7c0.3-0.3,0.5-0.7,0.5-1.1c0-0.5-0.2-0.9-0.5-1.2
		C28,88.5,27.6,88.2,27.1,88.1z" />
		<path d="M16.8,88.1c-0.4-0.1-1-0.3-1.7-0.4c-0.5-0.1-0.8-0.2-1-0.3c-0.3-0.1-0.4-0.3-0.4-0.4c0-0.1,0-0.2,0.2-0.3
		c0.1-0.1,0.4-0.2,0.8-0.2c0.5,0,0.8,0.1,1.1,0.2c0.2,0.1,0.4,0.2,0.4,0.4l1.9,0.1c-0.1-0.6-0.4-0.9-1-1.3c-0.6-0.3-1.3-0.5-2.4-0.5
		c-2.2,0-3.4,0.6-3.4,1.8c0,0.6,0.4,1.1,1,1.4c0.6,0.3,1.3,0.5,2.1,0.6c0.5,0.1,0.8,0.2,1.1,0.3c0.3,0.1,0.4,0.3,0.4,0.6
		c0,0.3-0.1,0.5-0.2,0.5c-0.1,0.1-0.4,0.2-1,0.2c-0.6,0-1-0.1-1.2-0.3c-0.2-0.2-0.4-0.4-0.4-0.8l-2,0c0,0.7,0.4,1.1,1.1,1.5
		c0.6,0.4,1.5,0.6,2.5,0.6c0.6,0,1.2-0.1,1.7-0.2c0.5-0.1,0.9-0.4,1.2-0.7c0.3-0.3,0.5-0.7,0.5-1.1c0-0.5-0.2-0.9-0.5-1.2
		C17.6,88.5,17.2,88.2,16.8,88.1z" />
		<path d="M38.1,85.8c-0.6-0.2-1.3-0.4-2.1-0.4c-0.8,0-1.5,0.1-2.1,0.4c-0.6,0.3-1.1,0.6-1.4,1.1C32.2,87.4,32,88,32,88.7
		c0,0.7,0.2,1.3,0.5,1.7c0.3,0.5,0.8,0.9,1.4,1.1c0.6,0.3,1.3,0.4,2.1,0.4c0.8,0,1.5-0.1,2.1-0.4c0.6-0.3,1.1-0.6,1.4-1.1
		c0.3-0.5,0.5-1.1,0.5-1.7c0-0.7-0.2-1.2-0.5-1.7C39.2,86.5,38.7,86.1,38.1,85.8z M34.3,88.7c0-0.7,0.2-1.2,0.5-1.6
		c0.3-0.3,0.7-0.5,1.3-0.5s1,0.2,1.3,0.5c0.3,0.3,0.5,0.9,0.5,1.6c0,0.7-0.2,1.2-0.5,1.6v0c-0.3,0.3-0.7,0.5-1.3,0.5
		c-0.6,0-1-0.2-1.3-0.5C34.5,89.9,34.3,89.4,34.3,88.7z" />
		<path d="M51,89.3h-1.9L49,89.6c-0.1,0.4-0.3,0.7-0.5,0.9c-0.3,0.2-0.7,0.3-1.2,0.3c-0.6,0-1-0.2-1.2-0.5c-0.3-0.4-0.5-0.9-0.5-1.6
		c0-0.7,0.2-1.2,0.4-1.6c0.3-0.3,0.7-0.5,1.2-0.5c0.5,0,0.9,0.1,1.2,0.3c0.3,0.2,0.5,0.5,0.5,0.9l0.1,0.3H51l-0.1-0.4
		c-0.1-0.7-0.5-1.3-1.2-1.7c-0.6-0.4-1.5-0.6-2.6-0.6c-1.2,0-2.2,0.3-2.9,0.8c-0.7,0.6-1,1.4-1,2.4c0,1,0.3,1.9,1,2.4
		c0.7,0.6,1.7,0.8,2.9,0.8c1.1,0,1.9-0.2,2.5-0.6c0.7-0.4,1-0.9,1.2-1.7L51,89.3z" />
		<rect x="54.5" y="85.6" width="2.3" height="6.3" />
		<path d="M66.1,91.9h2.4l-3.4-6.4h-1.4L60,91.9h1.9l0.8-1.4h2.7L66.1,91.9z M64.1,87.9l0.7,1.4h-1.5L64.1,87.9z" />
		<polygon points="77.4,85.6 69.9,85.6 69.9,86.7 72.5,86.7 72.5,91.9 74.8,91.9 74.8,86.7 77.4,86.7 	" />
		<rect x="80.7" y="85.6" width="2.3" height="6.3" />
		<path d="M94.3,90.4c0.3-0.5,0.5-1.1,0.5-1.7c0-0.7-0.2-1.2-0.5-1.7c-0.3-0.5-0.8-0.9-1.4-1.1c-0.6-0.2-1.3-0.4-2.1-0.4
		c-0.8,0-1.5,0.1-2.1,0.4c-0.6,0.3-1.1,0.6-1.4,1.1c-0.3,0.5-0.5,1.1-0.5,1.7c0,0.7,0.2,1.3,0.5,1.7c0.3,0.5,0.8,0.9,1.4,1.1
		c0.6,0.3,1.3,0.4,2.1,0.4c0.8,0,1.5-0.1,2.1-0.4C93.5,91.3,94,90.9,94.3,90.4z M89.1,88.7c0-0.7,0.2-1.2,0.5-1.6
		c0.3-0.3,0.7-0.5,1.3-0.5s1,0.2,1.3,0.5c0.3,0.3,0.5,0.9,0.5,1.6c0,0.7-0.2,1.2-0.5,1.6v0c-0.3,0.3-0.7,0.5-1.3,0.5
		c-0.6,0-1-0.2-1.3-0.5C89.2,89.9,89.1,89.4,89.1,88.7z" />
		<polygon points="105.1,85.6 102.9,85.6 102.9,88.7 100.3,85.6 98.2,85.6 98.2,91.9 100.4,91.9 100.4,88.1 103.5,91.9 105.1,91.9 	
		" />
		<polygon points="116.7,89.1 120.2,89.1 120.2,87.9 116.7,87.9 116.7,86.7 120.8,86.7 120.8,85.6 114.4,85.6 114.4,91.9 116.7,91.9 
			" />
		<path d="M130.3,91c-0.1-0.2-0.2-0.5-0.4-0.8c-0.1-0.3-0.3-0.6-0.5-0.8c0,0-0.1-0.1-0.1-0.1c0.9-0.4,1.1-1.1,1.1-1.7
		c0-0.9-0.5-1.4-1-1.6c-0.6-0.3-1.3-0.4-2.4-0.4h-3.2v6.3h2.3v-2.3h1c0.1,0.1,0.2,0.1,0.3,0.2c0.1,0.2,0.3,0.4,0.4,0.8
		c0.1,0.3,0.2,0.5,0.3,0.7c0.1,0.2,0.2,0.4,0.4,0.5l0.1,0.1h2v-0.8L130.3,91C130.3,91.1,130.3,91,130.3,91z M128.1,87.6
		c0,0.2,0,0.6-0.2,0.7c-0.2,0.1-0.5,0.2-0.8,0.2h-1v-1.7h1c0.4,0,0.7,0.1,0.8,0.2C128.1,87,128.1,87.3,128.1,87.6z" />
		<path d="M136.5,85.5l-3.7,6.4h1.9l0.8-1.4h2.7l0.7,1.4h2.4l-3.4-6.4H136.5z M136.2,89.3l0.8-1.4l0.7,1.4H136.2z" />
		<polygon
			points="149,88.7 146.4,85.6 144.3,85.6 144.3,91.9 146.5,91.9 146.5,88.1 149.6,91.9 151.2,91.9 151.2,85.6 149,85.6 	" />
		<path d="M162.3,89.7l0.1-0.4h-1.9l-0.1,0.3c-0.1,0.4-0.3,0.7-0.5,0.9c-0.3,0.2-0.7,0.3-1.2,0.3c-0.6,0-1-0.2-1.2-0.5
		c-0.3-0.4-0.5-0.9-0.5-1.6c0-0.7,0.2-1.2,0.4-1.6c0.3-0.3,0.7-0.5,1.2-0.5c0.5,0,0.9,0.1,1.2,0.3c0.3,0.2,0.5,0.5,0.5,0.9l0.1,0.3
		h1.9l-0.1-0.4c-0.1-0.7-0.5-1.3-1.2-1.7c-0.6-0.4-1.5-0.6-2.6-0.6c-1.2,0-2.2,0.3-2.9,0.8c-0.7,0.6-1,1.4-1,2.4c0,1,0.3,1.9,1,2.4
		c0.7,0.6,1.7,0.8,2.9,0.8c1.1,0,1.9-0.2,2.5-0.6C161.8,91,162.2,90.4,162.3,89.7z" />
		<path d="M172.9,90.4c0.3-0.5,0.5-1.1,0.5-1.7c0-0.7-0.2-1.2-0.5-1.7c-0.3-0.5-0.8-0.9-1.4-1.1c-0.6-0.2-1.3-0.4-2.1-0.4
		c-0.8,0-1.5,0.1-2.1,0.4c-0.6,0.3-1.1,0.6-1.4,1.1c-0.3,0.5-0.5,1.1-0.5,1.7c0,0.7,0.2,1.3,0.5,1.7c0.3,0.5,0.8,0.9,1.4,1.1
		c0.6,0.3,1.3,0.4,2.1,0.4s1.5-0.1,2.1-0.4C172.1,91.3,172.6,90.9,172.9,90.4z M167.7,88.7c0-0.7,0.2-1.2,0.5-1.6
		c0.3-0.3,0.7-0.5,1.3-0.5c0.6,0,1,0.2,1.3,0.5c0.3,0.3,0.5,0.9,0.5,1.6c0,0.7-0.2,1.2-0.5,1.6c-0.3,0.3-0.7,0.5-1.3,0.5
		c-0.6,0-1-0.2-1.3-0.5C167.9,89.9,167.7,89.4,167.7,88.7z" />
	</g>
	<g>
		<path class="st0"
			d="M31.5,69.1H11.1l-4.8,9.8H0.7l20-39h4.9l18.9,39h-8.4L31.5,69.1z M30.1,66l-8.5-18.2L12.6,66H30.1z" />
		<path class="st0" d="M52,40.4h33.6v3.1H60.1v13.1h21.8v3.1H60.1v19.1H52V40.4z" />
		<path class="st0" d="M88.8,40.4h8.7L112,70.8l15.3-30.4h5.4l-19.6,39h-5L88.8,40.4z" />
		<path class="st0" d="M139.5,40.4h15.6c5.6,0,9.9,0.9,13,2.8c3.1,1.9,4.6,4.9,4.6,9.1c0,4.2-1.5,7.2-4.5,9.1
		c-3,1.9-7.4,2.8-13.1,2.8h-7.5v14.7h-8.1V40.4z M155.2,61c3.1,0,5.5-0.6,7-1.9c1.6-1.3,2.4-3.5,2.4-6.8c0-3.2-0.8-5.4-2.3-6.7
		c-1.6-1.3-3.9-2-7.1-2h-7.6V61H155.2z" />
	</g>
	<g>
		<linearGradient id="SVGID_1_" gradientUnits="userSpaceOnUse" x1="181.702" y1="47.0583" x2="224.5928" y2="58.924">
			<stop offset="0" style="stop-color:#008CFF" />
			<stop offset="0.1294" style="stop-color:#32A3FF;stop-opacity:0.8706" />
			<stop offset="0.3074" style="stop-color:#6FBEFF;stop-opacity:0.6926" />
			<stop offset="0.4785" style="stop-color:#A3D5FF;stop-opacity:0.5215" />
			<stop offset="0.6377" style="stop-color:#CBE7FF;stop-opacity:0.3623" />
			<stop offset="0.7825" style="stop-color:#E7F4FF;stop-opacity:0.2175" />
			<stop offset="0.9079" style="stop-color:#F9FCFF;stop-opacity:9.206527e-02" />
			<stop offset="1" style="stop-color:#FFFFFF;stop-opacity:0" />
		</linearGradient>
		<path class="st1" d="M221.1,28.6c0-1.2-0.2-2.5-0.5-3.7c-0.2-0.6-0.4-1.2-0.6-1.8c-0.3-0.6-0.6-1.2-1-1.8c-0.8-1.1-1.8-2.2-3.1-2.9
		c-0.6-0.4-1.3-0.7-2-0.9c-0.7-0.2-1.4-0.4-2.2-0.4c-1.5-0.1-3,0.2-4.3,0.6c-1.3,0.4-2.5,1-3.7,1.7c-2.3,1.4-4.2,3.1-6,5
		c-1.7,1.9-3.3,4-4.6,6.1c-1.3,2.2-2.5,4.4-3.5,6.7c-2,4.6-3.5,9.4-4.4,14.4c-0.4,2.5-0.7,5-0.8,7.5c-0.1,2.5-0.1,5,0.1,7.5
		c0.2,2.5,0.4,5,0.9,7.5c0.5,2.5,1.2,4.9,2.2,7.3c0.5,1.2,1.2,2.3,1.9,3.4c0.8,1.1,1.7,2.1,2.8,3c0.6,0.4,1.2,0.8,1.8,1.1
		c0.6,0.3,1.3,0.5,2,0.7c0.7,0.2,1.4,0.3,2,0.3c0.7,0,1.3,0,2-0.1c1.3-0.2,2.5-0.5,3.7-0.9c1.2-0.4,2.3-0.9,3.4-1.4l3.3-1.5
		c1.1-0.5,2-0.9,3.4-1.4c4.6-1.7,8.2-6.6,7.9-10.3c-1.4-0.2-3.8-0.9-5.2-3c-1.4-2.1-2.1-5.5-2.9-7.8c-0.9-2.6-2-3.7-2.4-4.1
		c-0.4-0.4,3-6.5,6.7-10.9c2.8-3.3,4-5.7,3.8-6s-3.1-0.1-3.9-0.5C219.7,40.1,221.2,30.1,221.1,28.6z" />
		<path class="st0" d="M221.1,28.6c-0.6-1.1-1.2-2.2-1.8-3.2c-0.3-0.5-0.7-1-1-1.4c-0.4-0.4-0.7-0.8-1.1-1.2
		c-0.8-0.7-1.7-1.3-2.6-1.6c-0.5-0.2-0.9-0.3-1.4-0.4c-0.5-0.1-1-0.1-1.4-0.1c-0.9,0-1.9,0.2-2.9,0.5c-1,0.4-1.9,0.9-2.9,1.4
		c-1.8,1.2-3.5,2.7-5.1,4.4c-3,3.4-5.4,7.5-7.3,11.8c-1.9,4.3-3.3,8.8-4.2,13.4c-0.4,2.3-0.7,4.6-0.9,7c-0.1,2.4-0.2,4.7-0.1,7.1
		c0.1,2.4,0.3,4.7,0.6,7c0.4,2.3,0.9,4.6,1.7,6.7c0.8,2.1,2,4.1,3.6,5.4c0.4,0.3,0.8,0.7,1.3,0.9c0.4,0.3,0.9,0.5,1.4,0.7
		c0.5,0.2,1,0.3,1.5,0.4c0.5,0.1,1.1,0.1,1.6,0.1c2.2,0,4.6-0.7,6.9-1.3l3.5-1c1.2-0.3,2.4-0.6,3.6-0.8c-1.1,0.4-2.3,0.9-3.4,1.4
		l-3.3,1.5c-1.1,0.5-2.3,1-3.4,1.4c-1.2,0.4-2.4,0.8-3.7,0.9c-0.7,0.1-1.3,0.1-2,0.1c-0.7,0-1.4-0.1-2-0.3c-0.7-0.2-1.3-0.4-2-0.7
		c-0.6-0.3-1.2-0.7-1.8-1.1c-1.1-0.8-2-1.9-2.8-3c-0.8-1.1-1.4-2.3-1.9-3.4c-1-2.4-1.7-4.8-2.2-7.3c-0.5-2.5-0.8-5-0.9-7.5
		c-0.2-2.5-0.2-5-0.1-7.5c0.1-2.5,0.3-5,0.8-7.5c0.8-5,2.3-9.8,4.4-14.4c1-2.3,2.2-4.5,3.5-6.7c1.3-2.2,2.9-4.2,4.6-6.1
		c1.7-1.9,3.7-3.6,6-5c1.1-0.7,2.4-1.3,3.7-1.7c1.3-0.4,2.7-0.7,4.3-0.6c0.8,0,1.5,0.2,2.2,0.4c0.7,0.2,1.4,0.5,2,0.9
		c1.3,0.7,2.3,1.8,3.1,2.9c0.4,0.6,0.7,1.2,1,1.8c0.3,0.6,0.5,1.2,0.6,1.8C221,26.1,221.1,27.4,221.1,28.6z" />
		<linearGradient id="SVGID_2_" gradientUnits="userSpaceOnUse" x1="279.4679" y1="46.1854" x2="236.1106"
			y2="58.5072">
			<stop offset="0" style="stop-color:#CC1417" />
			<stop offset="0.2056" style="stop-color:#DA5659;stop-opacity:0.7944" />
			<stop offset="0.4124" style="stop-color:#E79293;stop-opacity:0.5876" />
			<stop offset="0.6028" style="stop-color:#F2C1C2;stop-opacity:0.3972" />
			<stop offset="0.7703" style="stop-color:#F9E3E3;stop-opacity:0.2297" />
			<stop offset="0.9084" style="stop-color:#FDF8F8;stop-opacity:9.164810e-02" />
			<stop offset="1" style="stop-color:#FFFFFF;stop-opacity:0" />
		</linearGradient>
		<path class="st2" d="M237.4,27.2c0-1.3,0.2-2.5,0.7-3.8c0.2-0.6,0.5-1.2,0.9-1.8c0.4-0.6,0.8-1.1,1.3-1.6c1-1,2.3-1.7,3.6-2.2
		c0.7-0.3,1.3-0.4,2-0.6c0.2,0,0.4-0.1,0.6-0.1c0.2,0,0.4,0,0.6,0c0.2,0,0.4,0,0.6,0c0.2,0,0.4,0,0.6,0c1.5,0.1,2.9,0.5,4.1,1
		c1.3,0.5,2.4,1.2,3.5,2c2.2,1.5,4.1,3.3,5.8,5.3c1.7,2,3.1,4.1,4.4,6.3c1.3,2.2,2.4,4.5,3.4,6.8c1,2.3,1.8,4.7,2.5,7.2
		c0.7,2.4,1.2,4.9,1.6,7.4c0.4,2.5,0.5,5.1,0.6,7.6c0,2.5,0,5-0.2,7.5c-0.2,2.5-0.6,5-1.1,7.5c-0.6,2.5-1.4,5-2.6,7.3
		c-0.6,1.2-1.4,2.3-2.3,3.3c-0.5,0.5-1,1-1.5,1.4c-0.3,0.2-0.6,0.4-0.9,0.6c-0.1,0.1-0.3,0.2-0.4,0.3l-0.5,0.2
		c-0.6,0.3-1.3,0.6-1.9,0.8c-0.7,0.2-1.3,0.3-2,0.4c-1.3,0.1-2.7,0.1-3.9-0.1c-1.3-0.2-2.5-0.5-3.7-0.8c-1.2-0.3-2.4-0.7-3.5-1.2
		c-1.2-0.4-2.3-0.9-3.4-1.3c-1.1-0.5-2.3-0.9-3.4-1.4c-1.7-0.6-2.2-0.8-2.7-0.9c0.4-1.4,1.3-3,1.2-4.3c-0.1-1.3-0.1-4.5-0.1-4.5
		s-2.7-2.2-1.6-3.1c1.1-0.9,5.4-2.5,6.9-3.6c1.5-1.1,4.6-3,4.6-5.3c0-2.3-1.8-6.9-3.1-9.6c-1.6-3.1-7.1-10.1-8-11.1
		c-0.9-1.1-4.2-5.1-3.5-8.5c0.2-1.1,2.3-0.6,1.9-2C237.7,30.8,237.3,27.9,237.4,27.2z" />
		<path class="st0" d="M237.4,27.2c0-1.3,0.2-2.5,0.7-3.8c0.2-0.6,0.5-1.2,0.9-1.8c0.4-0.6,0.8-1.1,1.3-1.6c1-1,2.3-1.7,3.6-2.2
		c0.7-0.3,1.3-0.4,2-0.6c0.2,0,0.4-0.1,0.6-0.1c0.2,0,0.4,0,0.6,0c0.2,0,0.4,0,0.6,0c0.2,0,0.4,0,0.6,0c1.5,0.1,2.9,0.5,4.1,1
		c1.3,0.5,2.4,1.2,3.5,2c2.2,1.5,4.1,3.3,5.8,5.3c1.7,2,3.1,4.1,4.4,6.3c1.3,2.2,2.4,4.5,3.4,6.8c1,2.3,1.8,4.7,2.5,7.2
		c0.7,2.4,1.2,4.9,1.6,7.4c0.4,2.5,0.5,5.1,0.6,7.6c0,2.5,0,5-0.2,7.5c-0.2,2.5-0.6,5-1.1,7.5c-0.6,2.5-1.4,5-2.6,7.3
		c-0.6,1.2-1.4,2.3-2.3,3.3c-0.5,0.5-1,1-1.5,1.4c-0.3,0.2-0.6,0.4-0.9,0.6c-0.1,0.1-0.3,0.2-0.4,0.3l-0.5,0.2
		c-0.6,0.3-1.3,0.6-1.9,0.8c-0.7,0.2-1.3,0.3-2,0.4c-1.3,0.1-2.7,0.1-3.9-0.1c-1.3-0.2-2.5-0.5-3.7-0.8c-1.2-0.3-2.4-0.7-3.5-1.2
		c-1.2-0.4-2.3-0.9-3.4-1.3c-1.1-0.5-2.3-0.9-3.4-1.4c1.2,0.2,2.4,0.5,3.6,0.8c1.2,0.3,2.4,0.6,3.6,0.9c2.4,0.5,4.8,1,7.1,1.1
		c2.3,0.1,4.6-0.3,6.4-1.4c0.9-0.6,1.7-1.3,2.4-2.1c0.7-0.8,1.3-1.8,1.7-2.8c1-2,1.6-4.3,2.1-6.6c0.4-2.3,0.7-4.7,0.8-7.1
		c0.1-2.4,0.1-4.8,0-7.2c0-1.2-0.1-2.4-0.2-3.5c-0.1-0.6-0.1-1.2-0.2-1.8l-0.1-0.9l-0.1-0.9c-0.4-2.3-0.9-4.6-1.6-6.9
		c-0.7-2.3-1.4-4.5-2.4-6.7c-0.9-2.2-2-4.3-3.1-6.4c-1.2-2-2.5-4-4-5.8c-1.5-1.8-3.1-3.4-4.9-4.7c-0.9-0.7-1.9-1.2-2.8-1.7
		c-1-0.4-2-0.7-2.9-0.8c-0.1,0-0.2,0-0.4,0c-0.1,0-0.2,0-0.3,0c-0.1,0-0.2,0-0.3,0l-0.4,0c-0.5,0-1.1,0.1-1.6,0.2
		c-0.5,0.1-1,0.2-1.5,0.4c-0.5,0.2-1,0.4-1.4,0.6c-0.9,0.5-1.8,1.2-2.5,2.1c-0.4,0.4-0.7,0.9-1,1.4l-0.5,0.8
		C237.7,26.6,237.6,26.9,237.4,27.2z" />
		<linearGradient id="SVGID_3_" gradientUnits="userSpaceOnUse" x1="224.5998" y1="33.3371" x2="255.9888" y2="58.264">
			<stop offset="0" style="stop-color:#464B4C" />
			<stop offset="0.1439" style="stop-color:#6B3C3E" />
			<stop offset="0.3103" style="stop-color:#8E2D30" />
			<stop offset="0.4792" style="stop-color:#A92225" />
			<stop offset="0.6496" style="stop-color:#BC1A1D" />
			<stop offset="0.822" style="stop-color:#C81619" />
			<stop offset="1" style="stop-color:#CC1417" />
		</linearGradient>
		<path class="st3" d="M257.6,62.1c-0.3-2.1-1.8-5.1-3.4-7.2c-2.8-3.7-4.3-7.5-4.1-9c0.2-1.6,4.4-5.8,5.8-7.8
		c1.2-1.7,0.7-2.3-0.2-3.4c-0.6-0.8-3.4-0.8-5.7-2c-1.4-0.7-3.2-4-5.1-3.9c-1.4,0.1-4.1,2.6-5.4,3.1c-0.4,0.2-0.8,0.3-1.2,0.4
		c-3.1-2.2-5.7-8.3-5.7-19V0.8h-4.7v12.5c0,9,2.2,16.4,6.1,20.6c-0.9,1-0.5,2.4,0.2,3.6c0.9,1.6,2.4,3.6,3.1,4.2
		c0.8,0.7,4,1.4,5.5,1.1c0-0.3,0-0.2-0.1-0.4c-1,0.1-2.8-0.7-3.3-1.4c-0.9-1.5-2.5-4.1-2.5-5.5c0.5-0.2,2.4-0.6,3.9-1.2
		c1.5-0.6,2.5-1,3.9-2.1c0.7,0.5,2.3,2.7,3.4,3.3s2.4,1.2,4.2,1.4c-0.9,1.6-4.9,5.4-4.6,8.6c0.3,3,4.3,8.1,7.1,13
		c2.6,4.6,1.3,8.3-0.7,11.2c-2,2.8-7.3,6.6-11.2,8.2c0.5-1.1-0.3-4.5-1.8-5.8c2.6-0.8,9-3,10.5-7.4c1.2-3.6-0.9-8-2.8-10.8
		c-1.8-2.8-4.2-6.3-6.3-8.3c-0.3,0.2-0.1,0.1-0.3,0.3c0.5,0.6,2.5,3,3.3,4.7c1.1,2.1,4,7.2,4.5,11.5c0.5,4.2-6,6.4-7.9,7.2
		c-2,0.8-3.6,1.4-4.3,2.1c-0.8,0.8,0.4,3.1,1.9,4.4c-0.4,1.1-0.5,2.2-0.4,3.3c0.1,1.1,0,3.5,0.8,5.1c2.8-1.4,5.6-2,11.1-6
		C257.4,73.4,258.7,68.8,257.6,62.1z" />
		<linearGradient id="SVGID_4_" gradientUnits="userSpaceOnUse" x1="231.1519" y1="34.2131" x2="192.1423"
			y2="65.2788">
			<stop offset="0" style="stop-color:#464B4C" />
			<stop offset="1.720846e-02" style="stop-color:#434D54" />
			<stop offset="0.1386" style="stop-color:#325E81" />
			<stop offset="0.265" style="stop-color:#226CA8" />
			<stop offset="0.3948" style="stop-color:#1678C7" />
			<stop offset="0.529" style="stop-color:#0C81E0" />
			<stop offset="0.6694" style="stop-color:#0587F1" />
			<stop offset="0.8203" style="stop-color:#018BFC" />
			<stop offset="1" style="stop-color:#008CFF" />
		</linearGradient>
		<path class="st4" d="M231.8,0.8h-4.7v10.3c0,16.1-5.3,22.8-11.5,29.3c-1.6-0.4-3.1-0.9-4.5-1.8c-1.4-0.9-2.6-2.2-3.8-3.7
		c-1.1-1.5-2.2-3.1-3.3-4.7l-0.5-0.7c0,0-6,2.5-6.2,2.6c0.3,0,4.8-0.1,5-0.1c0.8,1.5,1.7,3,2.7,4.6c0.6,0.8,1.2,1.7,1.9,2.5
		c0.7,0.8,1.5,1.6,2.4,2.2c0.9,0.6,1.9,1.2,2.9,1.6c1,0.4,2,0.7,3,1c1.3,0.3,2.6,0.5,3.8,0.6c-0.3,0.6-0.7,1.3-1.2,1.9
		c-0.9,1.3-2.1,2.6-3.2,3.9c-1.1,1.3-2.3,2.7-3.4,4.3c-0.5,0.8-1,1.7-1.4,2.6c-0.4,1-0.7,2-0.7,3.1l-0.1,1.8l1.8,0.1
		c0.2,0,0.3,0,0.4,0.1c0.1,0,0.2,0.1,0.3,0.3c0.3,0.3,0.6,0.9,0.8,1.5c0.5,1.3,0.8,2.8,1.3,4.4c0.5,1.5,1.1,3.2,2.1,4.7
		c0.5,0.8,1.2,1.5,1.9,2c0.4,0.3,0.8,0.6,1.3,0.8c-0.2,0.6-1.1,1.6-2.2,2.6c-0.9,0.9-1.9,1.4-2.8,1.6c-2.4,0.4-3.2-0.2-4.7-0.6
		c-1.4-0.3-3-0.5-4.1-0.5c-1.1,0-2.4,0.2-3.5,0.6c-1.8,0.6-2.4,2-2.5,2.3c0.3-0.4,0.7-0.8,1.2-1c0.5-0.2,1-0.4,1.5-0.4
		c1-0.2,2.1-0.1,3.1,0.1c1,0.2,2,0.4,3,0.8c0.5,0.2,1,0.3,1.5,0.5c0.2,0.1,0.5,0.2,0.7,0.3l0.4,0.2l0.1,0l0.1,0
		c0.1,0,0.1,0.1,0.2,0.1c1.2,0.5,2.5,0.5,3.8,0.3c1.2-0.3,2.3-0.8,3.3-1.5c1-0.7,1.8-1.5,2.6-2.4c0.4-0.5,0.7-1,1-1.5
		c0.2-0.3,0.3-0.6,0.4-0.9c0.1-0.4,0.3-0.7,0.2-1.4l0-0.9l-0.9-0.4c-1.2-0.5-2.1-1.3-2.7-2.4c-0.7-1.1-1.1-2.4-1.5-3.9
		c-0.2-0.7-0.4-1.5-0.6-2.2c-0.2-0.8-0.4-1.6-0.7-2.4c-0.3-0.8-0.6-1.7-1.3-2.6c-0.3-0.4-0.8-0.8-1.3-1.1c0.3-0.8,0.7-1.7,1.3-2.5
		c0.9-1.3,1.9-2.6,3.1-3.9c1.1-1.3,2.3-2.6,3.4-4.1c0.5-0.8,1.1-1.6,1.5-2.5c0.4-0.9,0.8-2.1,0.8-3.3l0-1.8l-1.8-0.1
		c-0.3,0-0.5,0-0.8,0c6.3-6.9,11.2-14.4,11.2-29.9V0.8z" />
	</g>
	<g>
		<polygon points="4.8,100.5 2.7,96.6 0.3,96.6 3.8,103 5.2,103 8.8,96.6 7,96.6 	" />
		<rect x="12.5" y="96.6" width="2.3" height="6.3" />
		<polygon points="19.3,102.9 25.9,102.9 25.9,101.8 21.6,101.8 21.6,100.2 25.4,100.2 25.4,99 21.6,99 21.6,97.8 25.9,97.8 
		25.9,96.6 19.3,96.6 	" />
		<polygon points="29.1,97.8 31.8,97.8 31.8,102.9 34,102.9 34,97.8 36.6,97.8 36.6,96.6 29.1,96.6 	" />
		<polygon
			points="45,99.8 42.3,96.6 40.3,96.6 40.3,102.9 42.5,102.9 42.5,99.2 45.6,102.9 47.2,102.9 47.2,96.6 45,96.6 	" />
		<path d="M54.3,96.5l-3.7,6.4h1.9l0.8-1.4h2.7l0.7,1.4h2.4l-3.4-6.4H54.3z M54,100.3l0.8-1.4l0.7,1.4H54z" />
		<polygon points="67,100.4 64.9,96.6 62.7,96.6 62.7,102.9 64.3,102.9 64.3,99.9 66.1,102.9 67.5,102.9 68.8,100.3 68.8,102.9 
		71.1,102.9 71.1,96.6 68.9,96.6 	" />
		<rect x="75.6" y="96.6" width="2.3" height="6.3" />
		<polygon points="82.4,102.9 89,102.9 89,101.8 84.7,101.8 84.7,100.2 88.5,100.2 88.5,99 84.7,99 84.7,97.8 89,97.8 89,96.6 
		82.4,96.6 	" />
		<polygon
			points="97.6,99.8 94.9,96.6 92.8,96.6 92.8,102.9 95,102.9 95,99.2 98.2,102.9 99.7,102.9 99.7,96.6 97.6,96.6 	" />
		<polygon points="108.7,99.8 106,96.6 104,96.6 104,102.9 106.2,102.9 106.2,99.2 109.3,102.9 110.9,102.9 110.9,96.6 108.7,96.6 	
		" />
		<polygon points="115.1,102.9 121.7,102.9 121.7,101.8 117.4,101.8 117.4,100.2 121.2,100.2 121.2,99 117.4,99 117.4,97.8 
		121.7,97.8 121.7,96.6 115.1,96.6 	" />
		<path d="M134.9,96.6h-3.1v6.3h3.1c1.3,0,2.3-0.3,3.1-0.8c0.7-0.6,1.1-1.4,1.1-2.4c0-1-0.4-1.8-1.1-2.3
		C137.3,96.9,136.2,96.6,134.9,96.6z M136.8,99.7c0,0.7-0.2,1.3-0.5,1.6c-0.3,0.3-0.7,0.5-1.3,0.5h-1v-4h1c0.6,0,1,0.1,1.3,0.4
		C136.7,98.6,136.8,99,136.8,99.7z" />
		<polygon points="143.2,102.9 149.8,102.9 149.8,101.8 145.5,101.8 145.5,100.2 149.3,100.2 149.3,99 145.5,99 145.5,97.8 
		149.8,97.8 149.8,96.6 143.2,96.6 	" />
		<path d="M165.3,97.1c-0.6-0.3-1.4-0.4-2.4-0.4h-3v6.3h2.3v-2.1h0.7c1,0,1.8-0.1,2.4-0.5c0.6-0.3,0.9-0.9,0.9-1.6
		C166.2,97.8,165.7,97.3,165.3,97.1z M164,98.7c0,0.4-0.1,0.6-0.2,0.7c-0.2,0.1-0.4,0.2-0.8,0.2h-0.8v-1.8h0.8
		c0.4,0,0.7,0.1,0.8,0.2C163.9,98.1,164,98.4,164,98.7z" />
		<polygon points="174.7,99.8 172.1,96.6 170,96.6 170,102.9 172.2,102.9 172.2,99.2 175.3,102.9 176.9,102.9 176.9,96.6 174.7,96.6 
			" />
		<polygon points="181.2,102.9 187.7,102.9 187.7,101.8 183.4,101.8 183.4,100.2 187.2,100.2 187.2,99 183.4,99 183.4,97.8 
		187.7,97.8 187.7,96.6 181.2,96.6 	" />
		<path d="M196.4,100.4c0,0.5-0.1,0.8-0.3,1.1c-0.2,0.2-0.5,0.3-1,0.3c-0.5,0-0.9-0.1-1-0.3c-0.2-0.3-0.3-0.6-0.3-1.1v-3.8h-2.3v3.6
		c0,0.8,0.3,1.5,0.8,2c0.5,0.5,1.5,0.8,2.8,0.8c1.3,0,2.2-0.3,2.8-0.8c0.5-0.5,0.8-1.2,0.8-2v-3.6h-2.3V100.4z" />
		<polygon points="207.3,100.4 205.1,96.6 202.9,96.6 202.9,102.9 204.5,102.9 204.5,99.9 206.3,102.9 207.7,102.9 209,100.3 
		209,102.9 211.3,102.9 211.3,96.6 209.1,96.6 	" />
		<path d="M221.5,96.9c-0.6-0.2-1.3-0.4-2.1-0.4c-0.8,0-1.5,0.1-2.1,0.4c-0.6,0.3-1.1,0.6-1.4,1.1c-0.3,0.5-0.5,1.1-0.5,1.7
		c0,0.7,0.2,1.3,0.5,1.7c0.3,0.5,0.8,0.9,1.4,1.1c0.6,0.3,1.3,0.4,2.1,0.4s1.5-0.1,2.1-0.4c0.6-0.3,1.1-0.6,1.4-1.1
		c0.3-0.5,0.5-1.1,0.5-1.7c0-0.7-0.2-1.2-0.5-1.7C222.6,97.6,222.1,97.2,221.5,96.9z M217.7,99.8c0-0.7,0.2-1.2,0.5-1.6
		c0.3-0.3,0.7-0.5,1.3-0.5c0.6,0,1,0.2,1.3,0.5c0.3,0.3,0.5,0.9,0.5,1.6c0,0.7-0.2,1.2-0.5,1.6v0c-0.3,0.3-0.7,0.5-1.3,0.5
		c-0.6,0-1-0.2-1.3-0.5C217.8,101,217.7,100.5,217.7,99.8z" />
		<polygon points="229.7,96.6 227.5,96.6 227.5,102.9 233.6,102.9 233.6,101.8 229.7,101.8 	" />
		<path d="M243,96.9c-0.6-0.2-1.3-0.4-2.1-0.4c-0.8,0-1.5,0.1-2.1,0.4c-0.6,0.3-1.1,0.6-1.4,1.1c-0.3,0.5-0.5,1.1-0.5,1.7
		c0,0.7,0.2,1.3,0.5,1.7c0.3,0.5,0.8,0.9,1.4,1.1c0.6,0.3,1.3,0.4,2.1,0.4s1.5-0.1,2.1-0.4c0.6-0.3,1.1-0.6,1.4-1.1
		c0.3-0.5,0.5-1.1,0.5-1.7c0-0.7-0.2-1.2-0.5-1.7C244.1,97.6,243.6,97.2,243,96.9z M239.2,99.8c0-0.7,0.2-1.2,0.5-1.6
		c0.3-0.3,0.7-0.5,1.3-0.5c0.6,0,1,0.2,1.3,0.5c0.3,0.3,0.5,0.9,0.5,1.6c0,0.7-0.2,1.2-0.5,1.6v0c-0.3,0.3-0.7,0.5-1.3,0.5
		c-0.6,0-1-0.2-1.3-0.5C239.3,101,239.2,100.5,239.2,99.8z" />
		<rect x="260.9" y="96.6" width="2.3" height="6.3" />
		<polygon points="274.3,97.8 274.3,96.6 267.7,96.6 267.7,102.9 274.3,102.9 274.3,101.8 270,101.8 270,100.2 273.8,100.2 273.8,99 
		270,99 270,97.8 	" />
		<path d="M252,100.8h2.2v0.8c-0.2,0.1-0.3,0.1-0.5,0.2c-0.2,0-0.4,0.1-0.7,0.1c-0.6,0-1-0.2-1.3-0.5c-0.3-0.4-0.5-0.9-0.5-1.6
		c0-0.7,0.2-1.2,0.5-1.6c0.3-0.3,0.8-0.5,1.4-0.5c0.5,0,0.8,0.1,1.1,0.3c0.2,0.2,0.3,0.4,0.4,0.6h2c-0.1-0.4-0.3-0.8-0.6-1.1
		c-0.3-0.3-0.7-0.6-1.3-0.8c-0.5-0.2-1.1-0.3-1.7-0.3c-0.8,0-1.5,0.1-2.2,0.4c-0.6,0.3-1.1,0.6-1.5,1.1c-0.3,0.5-0.5,1.1-0.5,1.7
		c0,0.7,0.2,1.2,0.5,1.7c0.3,0.5,0.8,0.9,1.5,1.1c0.6,0.3,1.3,0.4,2.1,0.4c0.7,0,1.3-0.1,1.9-0.2c0.6-0.2,1.1-0.4,1.5-0.7l0.1-0.1
		v-2H252V100.8z" />
	</g>
</svg>