<?xml version="1.0" encoding="utf-8"?>
<!-- Generator: Adobe Illustrator 23.0.3, SVG Export Plug-In . SVG Version: 6.00 Build 0)  -->
<svg version="1.1" id="Layer_1" xmlns="http://www.w3.org/2000/svg" xmlns:xlink="http://www.w3.org/1999/xlink" x="0px"
	y="0px" viewBox="0 0 120 45" style="enable-background:new 0 0 120 45;" xml:space="preserve">
	<style type="text/css">
		.st0 {
			fill: #464B4C;
		}

		.st1 {
			enable-background: new;
		}

		.st2 {
			fill: url(#SVGID_1_);
		}

		.st3 {
			fill: url(#SVGID_2_);
		}

		.st4 {
			fill: url(#SVGID_3_);
		}

		.st5 {
			fill: url(#SVGID_4_);
		}
	</style>
	<rect x="0.4" y="42.6" class="st0" width="119.1" height="1.5" />
	<g class="st1">
		<path class="st0"
			d="M13.7,34.4H4.9l-2.1,4.2H0.4l8.6-16.8h2.1l8.1,16.8h-3.6L13.7,34.4z M13.1,33l-3.7-7.8L5.6,33H13.1z" />
		<path class="st0" d="M22.3,22h14.5v1.4h-11V29h9.4v1.3h-9.4v8.2h-3.5V22z" />
		<path class="st0" d="M38,22h3.8L48,35.1L54.6,22h2.3l-8.5,16.8h-2.2L38,22z" />
		<path class="st0" d="M59.7,22h6.7c2.4,0,4.3,0.4,5.6,1.2c1.3,0.8,2,2.1,2,3.9c0,1.8-0.6,3.1-1.9,3.9s-3.2,1.2-5.6,1.2h-3.2v6.3
		h-3.5V22z M66.5,30.9c1.3,0,2.4-0.3,3-0.8c0.7-0.6,1-1.5,1-2.9c0-1.4-0.3-2.3-1-2.9s-1.7-0.9-3-0.9h-3.3v7.5H66.5z" />
	</g>
	<g>

		<linearGradient id="SVGID_1_" gradientUnits="userSpaceOnUse" x1="79.7084" y1="24.1671" x2="98.1828" y2="19.0562"
			gradientTransform="matrix(1 0 0 -1 0 45.2756)">
			<stop offset="0" style="stop-color:#008CFF" />
			<stop offset="0.1294" style="stop-color:#32A3FF;stop-opacity:0.8706" />
			<stop offset="0.3074" style="stop-color:#6FBEFF;stop-opacity:0.6926" />
			<stop offset="0.4785" style="stop-color:#A3D5FF;stop-opacity:0.5215" />
			<stop offset="0.6377" style="stop-color:#CBE7FF;stop-opacity:0.3623" />
			<stop offset="0.7825" style="stop-color:#E7F4FF;stop-opacity:0.2175" />
			<stop offset="0.9079" style="stop-color:#F9FCFF;stop-opacity:9.210000e-02" />
			<stop offset="1" style="stop-color:#FFFFFF;stop-opacity:0" />
		</linearGradient>
		<path class="st2" d="M96.7,13.2c0-0.5-0.1-1.1-0.2-1.6c-0.1-0.3-0.2-0.5-0.3-0.8c-0.1-0.3-0.3-0.5-0.4-0.8
		c-0.3-0.5-0.8-0.9-1.3-1.3c-0.3-0.2-0.6-0.3-0.8-0.4c-0.3-0.1-0.6-0.2-0.9-0.2c-0.7,0-1.3,0.1-1.8,0.3c-0.6,0.2-1.1,0.4-1.6,0.8
		c-1,0.6-1.8,1.4-2.6,2.2s-1.4,1.7-2,2.6c-0.6,0.9-1.1,1.9-1.5,2.9c-0.9,2-1.5,4.1-1.9,6.2c-0.2,1.1-0.3,2.1-0.3,3.2
		c0,1.1,0,2.1,0,3.2s0.2,2.1,0.4,3.2c0.2,1.1,0.5,2.1,0.9,3.2c0.2,0.5,0.5,1,0.8,1.5s0.7,0.9,1.2,1.3c0.2,0.2,0.5,0.3,0.8,0.5
		c0.3,0.1,0.6,0.2,0.8,0.3c0.3,0.1,0.6,0.1,0.9,0.1c0.3,0,0.6,0,0.9,0c0.6-0.1,1.1-0.2,1.6-0.4s1-0.4,1.5-0.6l1.4-0.7
		c0.5-0.2,0.9-0.4,1.4-0.6c2-0.8,3.5-2.8,3.4-4.4c-0.6-0.1-1.7-0.4-2.2-1.3c-0.6-0.9-0.9-2.4-1.3-3.4c-0.4-1.1-0.9-1.6-1-1.8
		c-0.2-0.1,1.3-2.8,2.9-4.7c1.2-1.4,1.7-2.4,1.6-2.6s-1.3-0.1-1.7-0.2C96.1,18.1,96.7,13.8,96.7,13.2z" />
		<path class="st0" d="M96.7,13.2c-0.3-0.5-0.5-0.9-0.8-1.4c-0.1-0.2-0.3-0.4-0.4-0.6c-0.2-0.2-0.3-0.4-0.5-0.5
		c-0.3-0.3-0.7-0.6-1.1-0.7c-0.2-0.1-0.4-0.1-0.6-0.2s-0.4-0.1-0.6-0.1c-0.4,0-0.8,0.1-1.2,0.2s-0.8,0.4-1.2,0.6
		c-0.8,0.5-1.5,1.2-2.2,1.9c-1.3,1.5-2.3,3.2-3.2,5.1c-0.8,1.9-1.4,3.8-1.8,5.8c-0.2,1-0.3,2-0.4,3c-0.1,1-0.1,2,0,3.1
		c0,1,0.1,2,0.3,3c0.2,1,0.4,2,0.8,2.9c0.3,0.9,0.8,1.8,1.5,2.3c0.2,0.1,0.4,0.3,0.6,0.4c0.2,0.1,0.4,0.2,0.6,0.3
		c0.2,0.1,0.4,0.1,0.7,0.2c0.2,0,0.5,0,0.7,0c1,0,2-0.3,3-0.6l1.5-0.4c0.5-0.1,1-0.3,1.5-0.3c-0.5,0.2-1,0.4-1.4,0.6l-1.4,0.7
		c-0.5,0.2-1,0.4-1.5,0.6s-1,0.3-1.6,0.4c-0.3,0-0.6,0-0.9,0c-0.3,0-0.6-0.1-0.9-0.1c-0.3-0.1-0.6-0.2-0.8-0.3
		c-0.3-0.1-0.5-0.3-0.8-0.5c-0.5-0.4-0.9-0.8-1.2-1.3c-0.3-0.5-0.6-1-0.8-1.5c-0.4-1-0.7-2.1-0.9-3.2c-0.2-1.1-0.3-2.1-0.4-3.2
		s-0.1-2.1,0-3.2s0.2-2.2,0.3-3.2c0.4-2.1,1-4.2,1.9-6.2c0.4-1,0.9-1.9,1.5-2.9c0.6-0.9,1.2-1.8,2-2.6c0.8-0.8,1.6-1.6,2.6-2.2
		c0.5-0.3,1-0.6,1.6-0.8s1.2-0.3,1.8-0.3c0.3,0,0.6,0.1,0.9,0.2s0.6,0.2,0.8,0.4c0.5,0.3,1,0.8,1.3,1.3c0.2,0.3,0.3,0.5,0.4,0.8
		s0.2,0.5,0.3,0.8C96.6,12.1,96.7,12.6,96.7,13.2z" />

		<linearGradient id="SVGID_2_" gradientUnits="userSpaceOnUse" x1="121.8217" y1="24.5327" x2="103.1464" y2="19.2253"
			gradientTransform="matrix(1 0 0 -1 0 45.2756)">
			<stop offset="0" style="stop-color:#CC1417" />
			<stop offset="0.2056" style="stop-color:#DA5659;stop-opacity:0.7944" />
			<stop offset="0.4124" style="stop-color:#E79293;stop-opacity:0.5876" />
			<stop offset="0.6028" style="stop-color:#F2C1C2;stop-opacity:0.3972" />
			<stop offset="0.7703" style="stop-color:#F9E3E3;stop-opacity:0.2297" />
			<stop offset="0.9084" style="stop-color:#FDF8F8;stop-opacity:9.160000e-02" />
			<stop offset="1" style="stop-color:#FFFFFF;stop-opacity:0" />
		</linearGradient>
		<path class="st3" d="M103.7,12.5c0-0.5,0.1-1.1,0.3-1.6c0.1-0.3,0.2-0.5,0.4-0.8c0.2-0.3,0.3-0.5,0.6-0.7c0.4-0.4,1-0.7,1.6-0.9
		c0.3-0.1,0.6-0.2,0.9-0.2c0.1,0,0.2,0,0.2,0c0.1,0,0.2,0,0.3,0s0.2,0,0.2,0c0.1,0,0.2,0,0.2,0c0.6,0.1,1.2,0.2,1.8,0.4
		c0.6,0.2,1.1,0.5,1.5,0.8c0.9,0.6,1.8,1.4,2.5,2.3c0.7,0.9,1.4,1.8,1.9,2.7s1,1.9,1.5,2.9s0.8,2,1.1,3.1c0.3,1,0.5,2.1,0.7,3.2
		c0.2,1.1,0.2,2.2,0.3,3.3c0,1.1,0,2.2-0.1,3.2c-0.1,1.1-0.2,2.2-0.5,3.2s-0.6,2.1-1.1,3.1c-0.3,0.5-0.6,1-1,1.4
		c-0.2,0.2-0.4,0.4-0.7,0.6c-0.1,0.1-0.2,0.2-0.4,0.3c-0.1,0-0.1,0.1-0.2,0.1l-0.2,0.1c-0.3,0.1-0.6,0.3-0.8,0.3
		c-0.3,0.1-0.6,0.1-0.9,0.2c-0.6,0.1-1.2,0-1.7,0c-0.6-0.1-1.1-0.2-1.6-0.3c-0.5-0.2-1-0.3-1.5-0.5c-0.5-0.2-1-0.4-1.5-0.6
		c-0.5-0.2-1-0.4-1.5-0.6c-0.7-0.3-1-0.3-1.2-0.4c0.2-0.6,0.5-1.3,0.5-1.9s0-1.9,0-1.9s-1.2-1-0.7-1.3c0.5-0.4,2.3-1.1,3-1.5
		s2-1.3,2-2.3c0-1-0.8-3-1.3-4.1c-0.7-1.3-3.1-4.3-3.4-4.8c-0.4-0.5-1.8-2.2-1.5-3.7c0.1-0.5,1-0.3,0.8-0.9
		C103.8,14.1,103.7,12.9,103.7,12.5z" />
		<path class="st0" d="M103.7,12.5c0-0.5,0.1-1.1,0.3-1.6c0.1-0.3,0.2-0.5,0.4-0.8c0.2-0.3,0.3-0.5,0.6-0.7c0.4-0.4,1-0.7,1.6-0.9
		c0.3-0.1,0.6-0.2,0.9-0.2c0.1,0,0.2,0,0.2,0c0.1,0,0.2,0,0.3,0s0.2,0,0.2,0c0.1,0,0.2,0,0.2,0c0.6,0.1,1.2,0.2,1.8,0.4
		c0.6,0.2,1.1,0.5,1.5,0.8c0.9,0.6,1.8,1.4,2.5,2.3c0.7,0.9,1.4,1.8,1.9,2.7s1,1.9,1.5,2.9s0.8,2,1.1,3.1c0.3,1,0.5,2.1,0.7,3.2
		c0.2,1.1,0.2,2.2,0.3,3.3c0,1.1,0,2.2-0.1,3.2c-0.1,1.1-0.2,2.2-0.5,3.2s-0.6,2.1-1.1,3.1c-0.3,0.5-0.6,1-1,1.4
		c-0.2,0.2-0.4,0.4-0.7,0.6c-0.1,0.1-0.2,0.2-0.4,0.3c-0.1,0-0.1,0.1-0.2,0.1l-0.2,0.1c-0.3,0.1-0.6,0.3-0.8,0.3
		c-0.3,0.1-0.6,0.1-0.9,0.2c-0.6,0.1-1.2,0-1.7,0c-0.6-0.1-1.1-0.2-1.6-0.3c-0.5-0.2-1-0.3-1.5-0.5c-0.5-0.2-1-0.4-1.5-0.6
		c-0.5-0.2-1-0.4-1.5-0.6c0.5,0.1,1,0.2,1.6,0.3c0.5,0.1,1,0.3,1.5,0.4c1,0.2,2.1,0.5,3.1,0.5c1,0,2-0.1,2.8-0.6
		c0.4-0.3,0.7-0.5,1-0.9c0.3-0.4,0.5-0.8,0.8-1.2c0.4-0.9,0.7-1.8,0.9-2.8c0.2-1,0.3-2,0.4-3c0.1-1,0.1-2.1,0-3.1
		c0-0.5-0.1-1-0.1-1.5c0-0.3-0.1-0.5-0.1-0.8l-0.1-0.4l-0.1-0.4c-0.2-1-0.4-2-0.7-3c-0.3-1-0.6-1.9-1-2.9c-0.4-0.9-0.8-1.9-1.3-2.7
		c-0.5-0.9-1.1-1.7-1.7-2.5c-0.6-0.8-1.3-1.5-2.1-2c-0.4-0.3-0.8-0.5-1.2-0.7s-0.8-0.3-1.3-0.4c-0.1,0-0.1,0-0.2,0s-0.1,0-0.2,0
		c-0.1,0-0.1,0-0.2,0l-0.2,0c-0.2,0-0.5,0.1-0.7,0.1s-0.4,0.1-0.7,0.2s-0.4,0.2-0.6,0.3c-0.4,0.2-0.8,0.5-1.1,0.9
		c-0.2,0.2-0.3,0.4-0.4,0.6l-0.2,0.3C103.8,12.3,103.8,12.4,103.7,12.5z" />

		<linearGradient id="SVGID_3_" gradientUnits="userSpaceOnUse" x1="98.1917" y1="30.084" x2="111.7119" y2="19.3472"
			gradientTransform="matrix(1 0 0 -1 0 45.2756)">
			<stop offset="0" style="stop-color:#464B4C" />
			<stop offset="0.1439" style="stop-color:#6B3C3E" />
			<stop offset="0.3103" style="stop-color:#8E2D30" />
			<stop offset="0.4792" style="stop-color:#A92225" />
			<stop offset="0.6496" style="stop-color:#BC1A1D" />
			<stop offset="0.822" style="stop-color:#C81619" />
			<stop offset="1" style="stop-color:#CC1417" />
		</linearGradient>
		<path class="st4" d="M112.4,27.6c-0.2-0.9-0.8-2.2-1.5-3.1c-1.2-1.6-1.9-3.2-1.8-3.9c0.1-0.7,1.9-2.5,2.5-3.4
		c0.5-0.8,0.3-1-0.1-1.4c-0.3-0.3-1.4-0.4-2.5-0.9c-0.6-0.3-1.4-1.7-2.2-1.7c-0.6,0.1-1.8,1.1-2.3,1.3c-0.2,0.1-0.4,0.1-0.5,0.2
		c-1.3-1-2.4-3.6-2.4-8.2V1.2h-2v5.4c0,3.9,1,7.1,2.6,8.9c-0.4,0.4-0.2,1,0.1,1.6c0.4,0.7,1,1.6,1.3,1.8c0.3,0.3,1.7,0.6,2.4,0.5
		c0-0.1,0-0.1,0-0.2c-0.4,0-1.2-0.3-1.4-0.6c-0.4-0.6-1.1-1.8-1.1-2.4c0.2-0.1,1-0.3,1.7-0.5c0.6-0.3,1.1-0.4,1.7-0.9
		c0.3,0.2,1,1.2,1.4,1.4s1,0.5,1.8,0.6c-0.4,0.7-2.1,2.3-2,3.7c0.1,1.3,1.9,3.5,3.1,5.6c1.1,2,0.6,3.6-0.3,4.8
		c-0.8,1.2-3.2,2.8-4.8,3.5c0.2-0.5-0.1-2-0.8-2.5c1.1-0.4,3.9-1.3,4.5-3.2c0.5-1.5-0.4-3.5-1.2-4.7c-0.8-1.2-1.8-2.7-2.7-3.6
		c-0.1,0.1-0.1,0.1-0.1,0.1c0.2,0.3,1.1,1.3,1.4,2c0.5,0.9,1.7,3.1,1.9,5c0.2,1.8-2.6,2.8-3.4,3.1s-1.6,0.6-1.8,0.9
		c-0.3,0.4,0.2,1.3,0.8,1.9c-0.2,0.5-0.2,1-0.2,1.4c0,0.5,0,1.5,0.3,2.2c1.2-0.6,2.4-0.8,4.8-2.6C112.3,32.5,112.9,30.5,112.4,27.6z
		" />

		<linearGradient id="SVGID_4_" gradientUnits="userSpaceOnUse" x1="101.0102" y1="29.6962" x2="84.2076" y2="16.3152"
			gradientTransform="matrix(1 0 0 -1 0 45.2756)">
			<stop offset="0" style="stop-color:#464B4C" />
			<stop offset="1.720000e-02" style="stop-color:#434D54" />
			<stop offset="0.1386" style="stop-color:#325E81" />
			<stop offset="0.265" style="stop-color:#226CA8" />
			<stop offset="0.3948" style="stop-color:#1678C7" />
			<stop offset="0.529" style="stop-color:#0C81E0" />
			<stop offset="0.6694" style="stop-color:#0587F1" />
			<stop offset="0.8203" style="stop-color:#018BFC" />
			<stop offset="1" style="stop-color:#008CFF" />
		</linearGradient>
		<path class="st5" d="M101.3,1.2h-2v4.4c0,6.9-2.3,9.8-5,12.6c-0.7-0.1-1.3-0.4-1.9-0.8c-0.6-0.4-1.1-0.9-1.6-1.6
		c-0.5-0.6-0.9-1.3-1.4-2l-0.2-0.3c0,0-2.6,1.1-2.7,1.1c0.1,0,2.1,0,2.2,0c0.4,0.6,0.7,1.3,1.2,2c0.2,0.4,0.5,0.7,0.8,1.1
		c0.3,0.3,0.6,0.7,1,1c0.4,0.3,0.8,0.5,1.2,0.7c0.4,0.2,0.9,0.3,1.3,0.4c0.6,0.1,1.1,0.2,1.6,0.3c-0.1,0.3-0.3,0.5-0.5,0.8
		c-0.4,0.5-0.9,1.1-1.4,1.7s-1,1.2-1.4,1.9c-0.2,0.3-0.4,0.7-0.6,1.1c-0.2,0.4-0.3,0.9-0.3,1.4l0,0.8l0.8,0.1c0.1,0,0.1,0,0.2,0
		s0.1,0.1,0.2,0.1c0.1,0.1,0.2,0.4,0.3,0.6c0.2,0.5,0.4,1.2,0.6,1.9c0.2,0.7,0.5,1.4,0.9,2c0.2,0.3,0.5,0.6,0.8,0.9
		c0.2,0.1,0.3,0.3,0.6,0.3c-0.1,0.3-0.5,0.7-0.9,1.1c-0.4,0.4-0.8,0.6-1.2,0.7c-1.1,0.2-1.4-0.1-2-0.3C91,35.1,90.3,35,89.8,35
		s-1,0.1-1.5,0.3c-0.8,0.3-1,0.9-1.1,1c0.1-0.2,0.3-0.3,0.5-0.4s0.4-0.2,0.6-0.2c0.4-0.1,0.9,0,1.3,0s0.9,0.2,1.3,0.3
		c0.2,0.1,0.4,0.2,0.6,0.2c0.1,0,0.2,0.1,0.3,0.1l0.2,0.1l0,0l0.1,0c0,0,0.1,0,0.1,0c0.5,0.2,1.1,0.2,1.6,0.1c0.5-0.1,1-0.4,1.4-0.7
		c0.4-0.3,0.8-0.7,1.1-1c0.2-0.2,0.3-0.4,0.4-0.7c0.1-0.1,0.1-0.3,0.2-0.4c0.1-0.2,0.1-0.3,0.1-0.6l0-0.4l-0.4-0.2
		c-0.5-0.2-0.9-0.5-1.2-1c-0.3-0.5-0.5-1-0.7-1.7c-0.1-0.3-0.2-0.6-0.2-1c-0.1-0.3-0.2-0.7-0.3-1c-0.1-0.4-0.3-0.7-0.6-1.1
		c-0.1-0.2-0.3-0.4-0.6-0.5c0.1-0.4,0.3-0.7,0.6-1.1c0.4-0.6,0.8-1.1,1.3-1.7c0.5-0.6,1-1.1,1.5-1.8c0.2-0.3,0.5-0.7,0.7-1.1
		c0.2-0.4,0.3-0.9,0.3-1.4v-0.8l-0.8,0c-0.1,0-0.2,0-0.3,0c2.7-3,4.8-6.2,4.8-12.9L101.3,1.2L101.3,1.2z" />
	</g>
</svg>