<?xml version="1.0" encoding="utf-8"?>
<!-- Generator: Adobe Illustrator 23.0.3, SVG Export Plug-In . SVG Version: 6.00 Build 0)  -->
<svg version="1.1" id="Layer_1" xmlns="http://www.w3.org/2000/svg" xmlns:xlink="http://www.w3.org/1999/xlink" x="0px"
	y="0px" viewBox="0 0 512 512" style="enable-background:new 0 0 512 512;" xml:space="preserve">
	<path fill="currentColor" d="M427.4,177.1c-16.7,0-16.7,0-16.7-16.7V97.2C410.7,43.6,366.4,0,312,0H98.1C44,0,0,43.3,0,96.5v319C0,468.7,44,512,98.1,512
	H414c54.1,0,98.1-43.3,98.1-96.5V254.4c0-42.5-34.8-77.3-77.3-77.3H427.4z M472,415.5c0,31.2-26,56.5-58.1,56.5H98.1
	C66,472,40,446.6,40,415.5v-319C40,65.4,66,40,98.1,40H312c32.4,0,58.8,25.7,58.8,57.2v103.2c0,9.2,7.5,16.7,16.7,16.7h48.4
	c19.9,0,36.2,16.3,36.2,36.2v162.2H472z" />
	<path fill="currentColor" d="M264.8,87.8h-121c-32.5,0-59,26.5-59,59v11.3c0,32.5,26.5,59,59,59h121c32.5,0,59-26.5,59-59v-11.3
	C323.8,114.2,297.3,87.8,264.8,87.8z M283.8,158.1c0,10.5-8.5,19-19,19h-121c-10.5,0-19-8.5-19-19v-11.4c0-10.5,8.5-19,19-19h121
	c10.5,0,19,8.5,19,19V158.1z" />
	<path fill="currentColor" d="M369.2,262.8H143.8c-32.5,0-59,26.5-59,59v44.8c0,32.5,26.5,59,59,59h225.5c32.5,0,59-26.5,59-59v-44.8
	C428.2,289.3,401.8,262.8,369.2,262.8z M388.2,366.6c0,10.5-8.5,19-19,19H143.8c-10.5,0-19-8.5-19-19v-44.8c0-10.5,8.5-19,19-19
	h225.5c10.5,0,19,8.5,19,19L388.2,366.6L388.2,366.6z" />
</svg>