<?xml version="1.0" encoding="utf-8"?>
<!-- Generator: Adobe Illustrator 23.0.3, SVG Export Plug-In . SVG Version: 6.00 Build 0)  -->
<svg version="1.1" id="Capa_1" xmlns="http://www.w3.org/2000/svg" xmlns:xlink="http://www.w3.org/1999/xlink" x="0px"
	y="0px" viewBox="0 0 385.2 385.2" style="enable-background:new 0 0 385.2 385.2;" xml:space="preserve">
	<g>
		<path fill="currentColor" id="Border_Arrow_Right" d="M381.7,183.5L201.9,3.7c-2.4-2.4-5.6-3.6-8.8-3.6c-0.1,0-0.2,0-0.3,0H12.4c-6.6,0-12,5.4-12,12
		c0,0.1,0,0.2,0,0.3c0,3.2,1.2,6.4,3.6,8.8l171.4,171.4L3.6,364.3c-4.8,4.8-4.8,12.6,0,17.5c2.9,2.9,6.7,3.8,10.5,3.3h177
		c3.7,0.5,7.6-0.4,10.5-3.3l180.1-180.1c2.5-2.5,3.6-5.8,3.5-9.1C385.3,189.3,384.1,186,381.7,183.5z M165.2,333.1H99.7l131.5-131.5
		c2.5-2.5,3.6-5.8,3.5-9.1c0.1-3.3-1-6.6-3.5-9.1L99.6,51.8h65.6l140.7,140.7L165.2,333.1z" />
	</g>
</svg>