<?xml version="1.0" encoding="utf-8"?>
<!-- Generator: Adobe Illustrator 15.1.0, SVG Export Plug-In . SVG Version: 6.00 Build 0)  -->
<!DOCTYPE svg PUBLIC "-//W3C//DTD SVG 1.1//EN" "http://www.w3.org/Graphics/SVG/1.1/DTD/svg11.dtd">
<svg version="1.1" id="Calque_1" xmlns="http://www.w3.org/2000/svg" xmlns:xlink="http://www.w3.org/1999/xlink" x="0px"
	y="0px" width="20px" height="20px" viewBox="0 0 20 20" enable-background="new 0 0 20 20" xml:space="preserve">
	<g id="pen">
		<path fill="none" stroke="currentColor" stroke-width="1.25" stroke-miterlimit="10"
			d="M9.959,2.709
		c0.356-0.621,1.148-0.834,1.771-0.476c0.621,0.359,0.836,1.153,0.478,1.775L5.252,16.05L2.83,17.652l0.173-2.897L9.959,2.709z" />
		<line fill="none" stroke="currentColor" stroke-width="1.25" stroke-miterlimit="10" x1="8.887" y1="4.563"
			x2="11.137" y2="5.862" />
		<line fill="none" stroke="currentColor" stroke-width="1.25" stroke-miterlimit="10" x1="3.801" y1="13.373"
			x2="6.049" y2="14.671" />
	</g>
	<path fill="currentColor" d="M5.979,18.438l-0.235-0.32c0,0,4.229-2.465,6.246-3.152c2.02-0.689,3.777-1.033,5.26-0.936l-0.131,1.767
	c-1.135-0.071-3.383-0.12-6.003,0.729C8.496,17.376,5.979,18.438,5.979,18.438z" />
</svg>